<?xml version="1.0" encoding="UTF-8" standalone="no"?><!DOCTYPE svg PUBLIC "-//W3C//DTD SVG 1.1//EN" "http://www.w3.org/Graphics/SVG/1.1/DTD/svg11.dtd"><svg width="100%" height="100%" viewBox="0 0 50 50" version="1.1" xmlns="http://www.w3.org/2000/svg" xmlns:xlink="http://www.w3.org/1999/xlink" xml:space="preserve" xmlns:serif="http://www.serif.com/" style="fill-rule:evenodd;clip-rule:evenodd;stroke-linejoin:round;stroke-miterlimit:2;"><path d="M25,47.09c12.2,-0 22.09,-9.89 22.09,-22.09c-0,-12.2 -9.89,-22.09 -22.09,-22.09c-12.2,0 -22.09,9.89 -22.09,22.09c0,12.2 9.89,22.09 22.09,22.09Z" style="fill:#fff;"/><path d="M25,39.636c8.083,-0 14.636,-6.553 14.636,-14.636c-0,-8.083 -6.553,-14.636 -14.636,-14.636c-8.083,0 -14.636,6.553 -14.636,14.636c0,8.083 6.553,14.636 14.636,14.636Z" style="fill:#0075ff;"/><path d="M25,50c13.807,0 25,-11.193 25,-25c0,-13.807 -11.193,-25 -25,-25c-13.807,-0 -25,11.193 -25,25c-0,13.807 11.193,25 25,25Zm0,-3.409c11.924,-0 21.591,-9.667 21.591,-21.591c-0,-11.924 -9.667,-21.591 -21.591,-21.591c-11.924,0 -21.591,9.667 -21.591,21.591c0,11.924 9.667,21.591 21.591,21.591Z" style="fill:#0075ff;"/></svg>